{
  "accessors": [
    {
      "bufferView": 2,
      "componentType": 5126,
      "count": 10922,
      "max": [
        0.17146241664886475,
        0.23500004410743713,
        0.23496244847774506
      ],
      "min": [
        -0.17146241664886475,
        -0.24841026961803436,
        -0.23496244847774506
      ],
      "type": "VEC3"
    },
    {
      "bufferView": 2,
      "byteOffset": 131064,
      "componentType": 5126,
      "count": 10922,
      "max": [
        1.0,
        1.0,
        1.0
      ],
      "min": [
        -1.0,
        -0.9999923706054688,
        -1.0
      ],
      "type": "VEC3"
    },
    {
      "bufferView": 1,
      "componentType": 5126,
      "count": 10922,
      "max": [
        0.9845998883247375,
        0.999900758266449
      ],
      "min": [
        9.921218588715419e-05,
        9.912252426147461e-05
      ],
      "type": "VEC2"
    },
    {
      "bufferView": 0,
      "componentType": 5125,
      "count": 57216,
      "type": "SCALAR"
    },
    {
      "bufferView": 2,
      "byteOffset": 262128,
      "componentType": 5126,
      "count": 4608,
      "max": [
        0.05769722908735275,
        0.011899515055119991,
        0.05769722908735275
      ],
      "min": [
        -0.05769722908735275,
        -0.0059300921857357025,
        -0.05769722908735275
      ],
      "type": "VEC3"
    },
    {
      "bufferView": 2,
      "byteOffset": 317424,
      "componentType": 5126,
      "count": 4608,
      "max": [
        1.0,
        1.0,
        1.0
      ],
      "min": [
        -1.0,
        -1.0,
        -1.0
      ],
      "type": "VEC3"
    },
    {
      "bufferView": 1,
      "byteOffset": 87376,
      "componentType": 5126,
      "count": 4608,
      "max": [
        1.0,
        1.0
      ],
      "min": [
        0.0,
        0.0
      ],
      "type": "VEC2"
    },
    {
      "bufferView": 0,
      "byteOffset": 228864,
      "componentType": 5125,
      "count": 23808,
      "type": "SCALAR"
    },
    {
      "bufferView": 2,
      "byteOffset": 372720,
      "componentType": 5126,
      "count": 481,
      "max": [
        0.13349640369415283,
        0.0030000009573996067,
        0.19699639081954956
      ],
      "min": [
        -0.13349640369415283,
        -0.0030000009573996067,
        -0.19699639081954956
      ],
      "type": "VEC3"
    },
    {
      "bufferView": 2,
      "byteOffset": 378492,
      "componentType": 5126,
      "count": 481,
      "max": [
        0.9988808035850525,
        0.999967098236084,
        0.9988808035850525
      ],
      "min": [
        -0.9988808035850525,
        -0.999967098236084,
        -0.9988808035850525
      ],
      "type": "VEC3"
    },
    {
      "bufferView": 1,
      "byteOffset": 124240,
      "componentType": 5126,
      "count": 481,
      "max": [
        1.0,
        1.0
      ],
      "min": [
        0.0,
        0.0
      ],
      "type": "VEC2"
    },
    {
      "bufferView": 0,
      "byteOffset": 324096,
      "componentType": 5125,
      "count": 2592,
      "type": "SCALAR"
    },
    {
      "bufferView": 2,
      "byteOffset": 384264,
      "componentType": 5126,
      "count": 637,
      "max": [
        0.05700000375509262,
        0.0030000009573996067,
        0.05700000375509262
      ],
      "min": [
        -0.05700000375509262,
        -0.0030000009573996067,
        -0.05700000375509262
      ],
      "type": "VEC3"
    },
    {
      "bufferView": 2,
      "byteOffset": 391908,
      "componentType": 5126,
      "count": 637,
      "max": [
        1.0,
        0.9999452829360962,
        1.0
      ],
      "min": [
        -1.0,
        -0.9999452829360962,
        -1.0
      ],
      "type": "VEC3"
    },
    {
      "bufferView": 1,
      "byteOffset": 128088,
      "componentType": 5126,
      "count": 637,
      "max": [
        1.0,
        1.0
      ],
      "min": [
        0.0,
        0.0
      ],
      "type": "VEC2"
    },
    {
      "bufferView": 0,
      "byteOffset": 334464,
      "componentType": 5125,
      "count": 3456,
      "type": "SCALAR"
    },
    {
      "bufferView": 2,
      "byteOffset": 399552,
      "componentType": 5126,
      "count": 768,
      "max": [
        0.2259404957294464,
        0.021000001579523087,
        0.010438070632517338
      ],
      "min": [
        -0.005964446347206831,
        0.0,
        -0.33864855766296387
      ],
      "type": "VEC3"
    },
    {
      "bufferView": 2,
      "byteOffset": 408768,
      "componentType": 5126,
      "count": 768,
      "max": [
        1.0,
        1.0,
        0.9922824501991272
      ],
      "min": [
        -1.0,
        -1.0,
        -0.9922824501991272
      ],
      "type": "VEC3"
    },
    {
      "bufferView": 1,
      "byteOffset": 133184,
      "componentType": 5126,
      "count": 768,
      "max": [
        0.5188838243484497,
        1.0070520639419556
      ],
      "min": [
        -0.0083207618445158,
        0.48225200176239014
      ],
      "type": "VEC2"
    },
    {
      "bufferView": 0,
      "byteOffset": 348288,
      "componentType": 5125,
      "count": 3168,
      "type": "SCALAR"
    },
    {
      "bufferView": 2,
      "byteOffset": 417984,
      "componentType": 5126,
      "count": 795,
      "max": [
        0.13050000369548798,
        0.0015000003622844815,
        0.1360810399055481
      ],
      "min": [
        -0.13050000369548798,
        -0.004500000737607479,
        -0.146418958902359
      ],
      "type": "VEC3"
    },
    {
      "bufferView": 2,
      "byteOffset": 427524,
      "componentType": 5126,
      "count": 795,
      "max": [
        0.9951865673065186,
        0.9963726997375488,
        0.999901294708252
      ],
      "min": [
        -0.9951865673065186,
        -0.9964485764503479,
        -0.999901294708252
      ],
      "type": "VEC3"
    },
    {
      "bufferView": 1,
      "byteOffset": 139328,
      "componentType": 5126,
      "count": 795,
      "max": [
        1.0,
        1.0
      ],
      "min": [
        0.0,
        0.0
      ],
      "type": "VEC2"
    },
    {
      "bufferView": 0,
      "byteOffset": 360960,
      "componentType": 5125,
      "count": 3186,
      "type": "SCALAR"
    },
    {
      "bufferView": 2,
      "byteOffset": 437064,
      "componentType": 5126,
      "count": 901,
      "max": [
        0.07489456236362457,
        0.0015000003622844815,
        0.19500000774860382
      ],
      "min": [
        -0.11110542714595795,
        -0.0015000003622844815,
        -0.19500000774860382
      ],
      "type": "VEC3"
    },
    {
      "bufferView": 2,
      "byteOffset": 447876,
      "componentType": 5126,
      "count": 901,
      "max": [
        0.9342165589332581,
        0.768398106098175,
        0.9951865673065186
      ],
      "min": [
        -0.9342165589332581,
        -0.768398106098175,
        -0.9951865673065186
      ],
      "type": "VEC3"
    },
    {
      "bufferView": 1,
      "byteOffset": 145688,
      "componentType": 5126,
      "count": 901,
      "max": [
        1.0,
        1.0
      ],
      "min": [
        0.0,
        0.0
      ],
      "type": "VEC2"
    },
    {
      "bufferView": 0,
      "byteOffset": 373704,
      "componentType": 5125,
      "count": 2184,
      "type": "SCALAR"
    },
    {
      "bufferView": 2,
      "byteOffset": 458688,
      "componentType": 5126,
      "count": 670,
      "max": [
        0.11191227287054062,
        0.0015000002458691597,
        0.19500000774860382
      ],
      "min": [
        -0.11110543459653854,
        -0.010288742370903492,
        -0.19500000774860382
      ],
      "type": "VEC3"
    },
    {
      "bufferView": 2,
      "byteOffset": 466728,
      "componentType": 5126,
      "count": 670,
      "max": [
        1.0,
        1.0,
        1.0
      ],
      "min": [
        -1.0,
        -1.0,
        -1.0
      ],
      "type": "VEC3"
    },
    {
      "bufferView": 1,
      "byteOffset": 152896,
      "componentType": 5126,
      "count": 670,
      "max": [
        1.0,
        1.0
      ],
      "min": [
        0.0,
        0.0
      ],
      "type": "VEC2"
    },
    {
      "bufferView": 0,
      "byteOffset": 382440,
      "componentType": 5125,
      "count": 3348,
      "type": "SCALAR"
    }
  ],
  "asset": {
    "extras": {
      "author": "goakley (https://sketchfab.com/goakley)",
      "license": "CC-BY-4.0 (http://creativecommons.org/licenses/by/4.0/)",
      "source": "https://sketchfab.com/3d-models/elkay-crosstown-single-bowl-sink-ectru12179t-8fc539c1bd3144808421a290642e9615",
      "title": "Elkay Crosstown Single Bowl Sink - ECTRU12179T"
    },
    "generator": "Sketchfab-15.30.0",
    "version": "2.0"
  },
  "bufferViews": [
    {
      "buffer": 0,
      "byteLength": 395832,
      "name": "floatBufferViews",
      "target": 34963
    },
    {
      "buffer": 0,
      "byteLength": 158256,
      "byteOffset": 395832,
      "byteStride": 8,
      "name": "floatBufferViews",
      "target": 34962
    },
    {
      "buffer": 0,
      "byteLength": 474768,
      "byteOffset": 554088,
      "byteStride": 12,
      "name": "floatBufferViews",
      "target": 34962
    }
  ],
  "buffers": [
    {
      "byteLength": 1028856,
      "uri": "scene.bin"
    }
  ],
  "materials": [
    {
      "doubleSided": true,
      "name": "Material",
      "pbrMetallicRoughness": {
        "baseColorFactor": [
          0.9,
          0.9,
          0.9,
          1.0
        ],
        "roughnessFactor": 0.25
      }
    },
    {
      "doubleSided": true,
      "name": "Rubber",
      "pbrMetallicRoughness": {
        "baseColorFactor": [
          0.025,
          0.025,
          0.025,
          1.0
        ],
        "metallicFactor": 0.0,
        "roughnessFactor": 0.9
      }
    }
  ],
  "meshes": [
    {
      "name": "Object_0",
      "primitives": [
        {
          "attributes": {
            "NORMAL": 1,
            "POSITION": 0,
            "TEXCOORD_0": 2
          },
          "indices": 3,
          "material": 0,
          "mode": 4
        }
      ]
    },
    {
      "name": "Object_1",
      "primitives": [
        {
          "attributes": {
            "NORMAL": 5,
            "POSITION": 4,
            "TEXCOORD_0": 6
          },
          "indices": 7,
          "material": 0,
          "mode": 4
        }
      ]
    },
    {
      "name": "Object_2",
      "primitives": [
        {
          "attributes": {
            "NORMAL": 9,
            "POSITION": 8,
            "TEXCOORD_0": 10
          },
          "indices": 11,
          "material": 0,
          "mode": 4
        }
      ]
    },
    {
      "name": "Object_3",
      "primitives": [
        {
          "attributes": {
            "NORMAL": 13,
            "POSITION": 12,
            "TEXCOORD_0": 14
          },
          "indices": 15,
          "material": 0,
          "mode": 4
        }
      ]
    },
    {
      "name": "Object_4",
      "primitives": [
        {
          "attributes": {
            "NORMAL": 17,
            "POSITION": 16,
            "TEXCOORD_0": 18
          },
          "indices": 19,
          "material": 1,
          "mode": 4
        }
      ]
    },
    {
      "name": "Object_5",
      "primitives": [
        {
          "attributes": {
            "NORMAL": 21,
            "POSITION": 20,
            "TEXCOORD_0": 22
          },
          "indices": 23,
          "material": 0,
          "mode": 4
        }
      ]
    },
    {
      "name": "Object_6",
      "primitives": [
        {
          "attributes": {
            "NORMAL": 25,
            "POSITION": 24,
            "TEXCOORD_0": 26
          },
          "indices": 27,
          "material": 0,
          "mode": 4
        }
      ]
    },
    {
      "name": "Object_7",
      "primitives": [
        {
          "attributes": {
            "NORMAL": 29,
            "POSITION": 28,
            "TEXCOORD_0": 30
          },
          "indices": 31,
          "material": 0,
          "mode": 4
        }
      ]
    }
  ],
  "nodes": [
    {
      "children": [
        1
      ],
      "matrix": [
        1.0,
        0.0,
        0.0,
        0.0,
        0.0,
        2.220446049250313e-16,
        -1.0,
        0.0,
        0.0,
        1.0,
        2.220446049250313e-16,
        0.0,
        0.0,
        0.0,
        0.0,
        1.0
      ],
      "name": "Sketchfab_model"
    },
    {
      "children": [
        2
      ],
      "name": "root"
    },
    {
      "children": [
        3,
        5,
        7
      ],
      "matrix": [
        1.0,
        0.0,
        0.0,
        0.0,
        0.0,
        2.220446049250313e-16,
        1.0,
        0.0,
        0.0,
        -1.0,
        2.220446049250313e-16,
        0.0,
        0.0,
        0.0,
        0.0,
        1.0
      ],
      "name": "GLTF_SceneRootNode"
    },
    {
      "children": [
        4
      ],
      "matrix": [
        1.0,
        0.0,
        0.0,
        0.0,
        0.0,
        0.48723405599594116,
        0.0,
        0.0,
        0.0,
        0.0,
        1.0,
        0.0,
        0.0,
        0.0,
        0.0,
        1.0
      ],
      "name": "Sink_0"
    },
    {
      "mesh": 0,
      "name": "Object_4"
    },
    {
      "children": [
        6
      ],
      "matrix": [
        1.0,
        0.0,
        0.0,
        0.0,
        0.0,
        1.0,
        0.0,
        0.0,
        0.0,
        0.0,
        1.0,
        0.0,
        0.0,
        -0.11528131365776062,
        -0.08844111114740372,
        1.0
      ],
      "name": "Cover_1"
    },
    {
      "mesh": 1,
      "name": "Object_6"
    },
    {
      "children": [
        8,
        9,
        11,
        13,
        15,
        17
      ],
      "matrix": [
        1.0,
        0.0,
        0.0,
        0.0,
        0.0,
        1.0,
        0.0,
        0.0,
        0.0,
        0.0,
        1.0,
        0.0,
        0.0,
        -0.08295311033725739,
        0.0,
        1.0
      ],
      "name": "CTXBG1015_7"
    },
    {
      "mesh": 2,
      "name": "Object_8"
    },
    {
      "children": [
        10
      ],
      "matrix": [
        1.0,
        0.0,
        0.0,
        0.0,
        0.0,
        1.0,
        0.0,
        0.0,
        0.0,
        0.0,
        1.0,
        0.0,
        0.0,
        0.0,
        -0.08884316682815552,
        1.0
      ],
      "name": "Drain_2"
    },
    {
      "mesh": 3,
      "name": "Object_10"
    },
    {
      "children": [
        12
      ],
      "matrix": [
        1.0,
        0.0,
        0.0,
        0.0,
        0.0,
        1.0,
        0.0,
        0.0,
        0.0,
        0.0,
        1.0,
        0.0,
        -0.1099880263209343,
        -0.02865838259458542,
        0.16410523653030396,
        1.0
      ],
      "name": "Feet_3"
    },
    {
      "mesh": 4,
      "name": "Object_12"
    },
    {
      "children": [
        14
      ],
      "matrix": [
        1.0,
        0.0,
        0.0,
        0.0,
        0.0,
        1.0,
        0.0,
        0.0,
        0.0,
        0.0,
        1.0,
        0.0,
        0.0,
        -0.0040000006556510925,
        0.0,
        1.0
      ],
      "name": "WiresHor.Mesh_4"
    },
    {
      "mesh": 5,
      "name": "Object_14"
    },
    {
      "children": [
        16
      ],
      "matrix": [
        1.0,
        0.0,
        0.0,
        0.0,
        0.0,
        1.0,
        0.0,
        0.0,
        0.0,
        0.0,
        1.0,
        0.0,
        0.01820099912583828,
        -0.0040000006556510925,
        0.0,
        1.0
      ],
      "name": "WiresVert.Mesh_5"
    },
    {
      "mesh": 6,
      "name": "Object_16"
    },
    {
      "children": [
        18
      ],
      "matrix": [
        1.0,
        0.0,
        0.0,
        0.0,
        0.0,
        1.0,
        0.0,
        0.0,
        0.0,
        0.0,
        1.0,
        0.0,
        -0.0004034173907712102,
        -0.0040000006556510925,
        0.0,
        1.0
      ],
      "name": "WiresVertFeet_6"
    },
    {
      "mesh": 7,
      "name": "Object_18"
    }
  ],
  "scene": 0,
  "scenes": [
    {
      "name": "Sketchfab_Scene",
      "nodes": [
        0
      ]
    }
  ]
}
